<?xml version="1.0" standalone="no"?><!DOCTYPE svg PUBLIC "-//W3C//DTD SVG 1.1//EN" "http://www.w3.org/Graphics/SVG/1.1/DTD/svg11.dtd"><svg t="1718359384727" class="icon" viewBox="0 0 1024 1024" version="1.1" xmlns="http://www.w3.org/2000/svg" p-id="4308" xmlns:xlink="http://www.w3.org/1999/xlink" width="200" height="200"><path d="M512 997.052632C245.221053 997.052632 26.947368 778.778947 26.947368 512S245.221053 26.947368 512 26.947368s485.052632 218.273684 485.052632 485.052632-218.273684 485.052632-485.052632 485.052632z m0-948.547369C256 48.505263 48.505263 256 48.505263 512S256 975.494737 512 975.494737 975.494737 768 975.494737 512 768 48.505263 512 48.505263z" fill="#4a4a4a" p-id="4309"></path><path d="M512 1007.831579C239.831579 1007.831579 16.168421 784.168421 16.168421 512S239.831579 16.168421 512 16.168421C784.168421 16.168421 1007.831579 239.831579 1007.831579 512S784.168421 1007.831579 512 1007.831579z m0-948.547368C261.389474 59.284211 59.284211 261.389474 59.284211 512S261.389474 964.715789 512 964.715789 964.715789 762.610526 964.715789 512 762.610526 59.284211 512 59.284211z" fill="#4a4a4a" p-id="4310"></path><path d="M541.642105 471.578947v-2.694736 2.694736zM819.2 404.210526c10.778947-8.084211 26.947368-5.389474 32.336842 8.084211 8.084211 10.778947 2.694737 29.642105-10.778947 32.336842-8.084211 2.694737-18.863158 2.694737-29.642106 2.694737-2.694737 0-5.389474-10.778947-10.778947-16.168421 8.084211-10.778947 10.778947-21.557895 18.863158-26.947369zM404.210526 468.884211c10.778947-26.947368 24.252632-51.2 37.726316-75.452632 0-2.694737 5.389474-5.389474 8.084211-5.389474h43.115789c-10.778947 24.252632-21.557895 43.115789-29.642105 61.978948 16.168421 0 35.031579-2.694737 53.894737-2.694737-13.473684 29.642105-26.947368 56.589474-40.421053 83.536842 10.778947 0 18.863158 0 29.642105 2.694737-5.389474 13.473684-10.778947 26.947368-18.863158 37.726316-5.389474 8.084211-59.284211 2.694737-64.673684-5.389474-2.694737-5.389474-2.694737-13.473684 0-18.863158 2.694737-8.084211 8.084211-16.168421 10.778948-24.252632 2.694737-8.084211 8.084211-16.168421 13.473684-24.252631h-21.557895c-21.557895-5.389474-29.642105-16.168421-21.557895-29.642105z m-239.831579 94.315789c-2.694737-5.389474 2.694737-13.473684 2.694737-21.557895 2.694737-29.642105 5.389474-56.589474 5.389474-83.536842 0-10.778947 5.389474-10.778947 13.473684-10.778947h37.726316c-8.084211 56.589474 0 115.873684-37.726316 167.073684-8.084211-18.863158-16.168421-35.031579-21.557895-51.2z m134.736842 26.947368c0 29.642105-18.863158 45.810526-48.505263 43.11579-18.863158-2.694737-29.642105-18.863158-29.642105-40.421053 8.084211 0 16.168421 0 26.947368-2.694737v-204.8H296.421053v10.778948c2.694737 64.673684 5.389474 129.347368 2.694736 194.021052z m64.673685 21.557895c-16.168421-21.557895-24.252632-43.115789-26.947369-67.368421-2.694737-29.642105-5.389474-59.284211-8.08421-86.231579 0-8.084211 0-10.778947 10.778947-10.778947 45.810526 2.694737 35.031579-8.084211 40.421053 35.031579 2.694737 24.252632 5.389474 48.505263 8.08421 75.452631v8.084211c-8.084211 13.473684-16.168421 29.642105-24.252631 45.810526z m91.621052 21.557895h-67.368421c0-2.694737 0-2.694737-2.694737-5.389474 8.084211-13.473684 13.473684-26.947368 21.557895-40.421052 0-2.694737 5.389474-5.389474 8.084211-5.389474 21.557895 0 43.115789 2.694737 67.368421 5.389474-8.084211 16.168421-16.168421 29.642105-21.557895 43.115789 0 0-2.694737 2.694737-5.389474 2.694737z" fill="#4a4a4a" p-id="4311"></path><path d="M646.736842 600.926316c0 43.115789 8.084211 35.031579-35.031579 37.726316h-129.347368c8.084211-16.168421 13.473684-29.642105 21.557894-43.11579 2.694737-2.694737 8.084211-5.389474 10.778948-5.389474h35.031579v-134.736842c-10.778947-2.694737-26.947368-2.694737-26.947369-5.389473-2.694737-13.473684 0-29.642105 0-45.810527h99.705264c2.694737 0 5.389474 5.389474 8.08421 8.084211v5.389474c0 10.778947 2.694737 21.557895-2.694737 29.642105-2.694737 5.389474-16.168421 5.389474-26.947368 8.08421v132.042106h32.336842c10.778947 2.694737 13.473684 5.389474 13.473684 13.473684z m91.621053-148.210527v37.726316c8.084211 0 18.863158 0 18.863158-2.694737 2.694737-8.084211 2.694737-18.863158 0-29.642105 0-2.694737-10.778947-2.694737-18.863158-5.389474z m72.757894 185.936843c-26.947368 0-43.115789-16.168421-43.115789-40.421053h43.115789v-48.505263c0-2.694737-8.084211-10.778947-13.473684-10.778948h-59.28421v80.842106c0 18.863158 0 18.863158-18.863158 18.863158-35.031579 0-29.642105 2.694737-29.642105-29.642106v-72.757894h-35.031579c-8.084211 0-10.778947-2.694737-10.778948-10.778948-2.694737-37.726316-2.694737-37.726316 35.031579-37.726316h10.778948V458.105263l-2.694737-2.694737c-26.947368-2.694737-26.947368-2.694737-26.947369-29.642105v-18.863158h29.642106c0-5.389474 2.694737-8.084211 2.694736-13.473684h45.810527c0 5.389474 2.694737 8.084211 2.694737 13.473684 21.557895 0 45.810526 2.694737 56.589473 21.557895 8.084211 18.863158 10.778947 40.421053 16.168421 61.978947h2.694737c35.031579 5.389474 45.810526 18.863158 45.810526 53.894737v53.894737c-2.694737 26.947368-21.557895 40.421053-51.2 40.421053z" fill="#4a4a4a" p-id="4312"></path></svg>